HIERARCHY
ROOT Hips
{
	OFFSET	0.000000	0.000000	0.000000
	CHANNELS	6	Xposition	Yposition	Zposition	Zrotation	Xrotation	Yrotation
	JOINT LeftHip
	{
		OFFSET	15.500000	-8.200000	0.000000
		CHANNELS	3	Zrotation	Xrotation	Yrotation
		JOINT LeftKnee
		{
			OFFSET	0.000000	-41.000000	0.000000
			CHANNELS	3	Zrotation	Xrotation	Yrotation
			JOINT LeftAnkle
			{
				OFFSET	0.000000	-41.500000	0.000000
				CHANNELS	3	Zrotation	Xrotation	Yrotation
				End Site
				{
					OFFSET	0.000000	0.000000	22.875000
				}
			}
		}
	}
	JOINT RightHip
	{
		OFFSET	-15.500000	-8.200000	0.000000
		CHANNELS	3	Zrotation	Xrotation	Yrotation
		JOINT RightKnee
		{
			OFFSET	0.000000	-41.000000	0.000000
			CHANNELS	3	Zrotation	Xrotation	Yrotation
			JOINT RightAnkle
			{
				OFFSET	0.000000	-41.500000	0.000000
				CHANNELS	3	Zrotation	Xrotation	Yrotation
				End Site
				{
					OFFSET	0.000000	0.000000	22.875000
				}
			}
		}
	}
	JOINT Chest
	{
		OFFSET	0.000000	16.666667	0.000000
		CHANNELS	3	Zrotation	Xrotation	Yrotation
		JOINT LeftCollar
		{
			OFFSET	4.625000	33.333333	1.541667
			CHANNELS	3	Zrotation	Xrotation	Yrotation
			JOINT LeftShoulder
			{
				OFFSET	13.875000	0.000000	0.000000
				CHANNELS	3	Zrotation	Xrotation	Yrotation
				JOINT LeftElbow
				{
					OFFSET	0.000000	-28.000000	0.000000
					CHANNELS	3	Zrotation	Xrotation	Yrotation
					JOINT LeftWrist
					{
						OFFSET	0.000000	-25.000000	0.000000
						CHANNELS	3	Zrotation	Xrotation	Yrotation
						End Site
						{
							OFFSET	0.000000	-7.500000	0.000000
						}
					}
				}
			}
		}
		JOINT RightCollar
		{
			OFFSET	-4.625000	33.333333	1.541667
			CHANNELS	3	Zrotation	Xrotation	Yrotation
			JOINT RightShoulder
			{
				OFFSET	-13.875000	0.000000	0.000000
				CHANNELS	3	Zrotation	Xrotation	Yrotation
				JOINT RightElbow
				{
					OFFSET	0.000000	-28.000000	0.000000
					CHANNELS	3	Zrotation	Xrotation	Yrotation
					JOINT RightWrist
					{
						OFFSET	0.000000	-25.000000	0.000000
						CHANNELS	3	Zrotation	Xrotation	Yrotation
						End Site
						{
							OFFSET	0.000000	-7.500000	0.000000
						}
					}
				}
			}
		}
		JOINT Neck
		{
			OFFSET	0.000000	33.333333	0.000000
			CHANNELS	3	Zrotation	Xrotation	Yrotation
			JOINT Head
			{
				OFFSET	0.000000	12.000000	0.000000
				CHANNELS	3	Zrotation	Xrotation	Yrotation
				End Site
				{
					OFFSET	0.000000	15.000000	0.000000
				}
			}
		}
	}
}
MOTION
Frames:	31
Frame Time:	0.012000
-72.99	104.92	-94.20	-2.95	0.15	102.14	2.00	-24.88	1.30	0.00	20.59	0.00	5.12	23.22	1.50	1.52	-1.26	-1.21	0.00	0.00	0.00	-5.51	34.87	7.22	1.10	7.29	-4.18	0.00	0.00	0.00	10.23	-8.25	30.48	-21.61	-0.57	5.13	-0.54	-0.79	0.00	0.00	0.00	0.00	-16.19	-23.92	-47.58	8.39	4.48	13.38	4.09	1.98	0.00	0.00	0.00	0.00	10.33	1.16	-76.14
-72.97	104.94	-94.17	-2.95	0.15	102.14	2.04	-25.06	1.41	0.00	20.72	0.00	5.04	23.24	1.56	1.55	-1.26	-1.25	0.00	0.00	0.00	-5.53	34.85	7.31	1.09	7.30	-4.22	0.00	0.00	0.00	10.24	-8.21	30.56	-21.57	-0.54	5.09	-0.50	-0.79	0.00	0.00	0.00	0.00	-16.22	-23.94	-47.63	8.38	4.48	13.39	4.11	1.98	0.00	0.00	0.00	0.00	10.33	1.16	-76.10
-72.96	104.96	-94.14	-3.03	0.15	102.12	2.09	-25.23	1.59	0.00	20.88	0.00	4.94	23.26	1.59	1.57	-1.25	-1.28	0.00	0.00	0.00	-5.58	34.84	7.41	1.06	7.27	-4.25	0.00	0.00	0.00	10.20	-8.20	30.69	-21.44	-0.56	5.05	-0.46	-0.79	0.00	0.00	0.00	0.00	-16.27	-24.00	-47.67	8.39	4.49	13.40	4.12	1.98	0.00	0.00	0.00	0.00	10.49	1.29	-76.02
-72.81	104.97	-94.13	-3.03	0.15	102.12	2.12	-25.38	1.73	0.00	20.97	0.00	4.88	23.30	1.59	1.59	-1.25	-1.31	0.00	0.00	0.00	-5.66	34.84	7.56	1.05	7.26	-4.29	0.00	0.00	0.00	10.16	-8.13	30.81	-21.38	-0.61	5.03	-0.42	-0.80	0.00	0.00	0.00	0.00	-16.31	-24.04	-47.68	8.38	4.50	13.40	4.14	1.98	0.00	0.00	0.00	0.00	10.50	1.31	-75.99
-72.81	104.98	-94.13	-3.03	0.15	102.12	2.16	-25.53	1.87	0.00	21.06	0.00	4.84	23.35	1.57	1.64	-1.20	-1.36	0.00	0.00	0.00	-5.76	34.82	7.71	1.05	7.24	-4.32	0.00	0.00	0.00	10.18	-8.10	30.92	-21.33	-0.55	4.99	-0.37	-0.80	0.00	0.00	0.00	0.00	-16.30	-24.08	-47.70	8.34	4.49	13.41	4.16	1.98	0.00	0.00	0.00	0.00	10.49	1.34	-75.95
-72.72	105.00	-94.11	-3.10	0.20	102.03	2.19	-25.70	2.00	0.00	21.19	0.00	4.81	23.38	1.55	1.65	-1.21	-1.34	0.00	0.00	0.00	-5.85	34.86	7.84	1.06	7.22	-4.35	0.00	0.00	0.00	10.21	-8.09	31.02	-21.26	-0.50	4.92	-0.32	-0.80	0.00	0.00	0.00	0.00	-16.28	-24.12	-47.72	8.31	4.46	13.41	4.18	1.98	0.00	0.00	0.00	0.00	10.57	1.44	-75.89
-72.59	105.02	-94.10	-3.10	0.20	102.03	2.22	-25.84	2.14	0.00	21.28	0.00	4.72	23.38	1.58	1.64	-1.23	-1.30	0.00	0.00	0.00	-5.94	34.91	7.93	1.06	7.20	-4.38	0.00	0.00	0.00	10.23	-8.09	31.14	-21.17	-0.38	4.85	-0.25	-0.78	0.00	0.00	0.00	0.00	-16.33	-24.20	-47.75	8.27	4.56	13.36	4.21	1.99	0.00	0.00	0.00	0.00	10.57	1.46	-75.86
-72.60	105.04	-94.12	-3.10	0.20	102.03	2.25	-25.98	2.29	0.00	21.37	0.00	4.63	23.39	1.62	1.63	-1.23	-1.22	0.00	0.00	0.00	-6.02	34.99	8.01	1.06	7.18	-4.40	0.00	0.00	0.00	10.26	-8.06	31.27	-21.09	-0.32	4.80	-0.19	-0.78	0.00	0.00	0.00	0.00	-16.32	-24.26	-47.75	8.23	4.55	13.37	4.22	2.00	0.00	0.00	0.00	0.00	10.56	1.49	-75.85
-72.58	105.06	-94.13	-3.21	0.20	101.82	2.29	-26.13	2.41	0.00	21.45	0.00	4.54	23.39	1.66	1.61	-1.25	-1.16	0.00	0.00	0.00	-6.10	35.04	8.11	1.08	7.16	-4.41	0.00	0.00	0.00	10.31	-8.03	31.40	-21.04	-0.23	4.76	-0.10	-0.78	0.00	0.00	0.00	0.00	-16.28	-24.30	-47.75	8.18	4.54	13.37	4.23	2.00	0.00	0.00	0.00	0.00	10.59	1.53	-75.71
-72.38	105.09	-94.24	-3.21	0.20	101.82	2.33	-26.32	2.61	0.00	21.57	0.00	4.47	23.41	1.71	1.58	-1.27	-1.05	0.00	0.00	0.00	-6.04	34.94	8.22	1.08	7.14	-4.42	0.00	0.00	0.00	10.34	-8.00	31.56	-20.98	-0.17	4.74	-0.04	-0.79	0.00	0.00	0.00	0.00	-16.23	-24.33	-47.74	8.15	4.43	13.43	4.22	1.99	0.00	0.00	0.00	0.00	10.58	1.56	-75.70
-72.42	105.11	-94.21	-3.21	0.20	101.82	2.39	-26.48	2.77	0.00	21.70	0.00	4.40	23.43	1.78	1.55	-1.31	-0.92	0.00	0.00	0.00	-6.09	34.96	8.28	1.09	7.10	-4.42	0.00	0.00	0.00	10.37	-7.96	31.72	-20.90	-0.12	4.73	0.01	-0.80	0.00	0.00	0.00	0.00	-16.20	-24.40	-47.74	8.11	4.43	13.43	4.23	2.00	0.00	0.00	0.00	0.00	10.57	1.59	-75.71
-72.48	105.12	-94.23	-3.30	0.24	101.66	2.43	-26.60	2.90	0.00	21.75	0.00	4.33	23.49	1.87	1.51	-1.33	-0.76	0.00	0.00	0.00	-6.15	35.00	8.36	1.12	7.09	-4.42	0.00	0.00	0.00	10.44	-7.92	31.89	-20.87	-0.04	4.74	0.04	-0.79	0.00	0.00	0.00	0.00	-16.14	-24.51	-47.69	8.03	4.39	13.44	4.24	2.00	0.00	0.00	0.00	0.00	10.55	1.60	-75.64
-72.33	105.15	-94.27	-3.30	0.24	101.66	2.48	-26.73	3.09	0.00	21.86	0.00	4.27	23.54	1.92	1.45	-1.34	-0.59	0.00	0.00	0.00	-6.20	35.03	8.40	1.13	7.06	-4.41	0.00	0.00	0.00	10.50	-7.89	32.08	-20.82	0.05	4.74	0.08	-0.79	0.00	0.00	0.00	0.00	-16.08	-24.56	-47.67	7.99	4.35	13.45	4.24	2.00	0.00	0.00	0.00	0.00	10.54	1.62	-75.65
-72.35	105.17	-94.31	-3.30	0.24	101.66	2.54	-26.84	3.28	0.00	21.97	0.00	4.21	23.61	1.99	1.38	-1.33	-0.37	0.00	0.00	0.00	-6.29	35.05	8.49	1.12	7.03	-4.39	0.00	0.00	0.00	10.52	-7.86	32.30	-20.73	0.15	4.74	0.13	-0.78	0.00	0.00	0.00	0.00	-16.06	-24.62	-47.66	7.99	4.29	13.43	4.23	1.99	0.00	0.00	0.00	0.00	10.54	1.65	-75.68
-72.32	105.19	-94.39	-3.42	0.29	101.38	2.60	-26.97	3.48	0.00	22.11	0.00	4.16	23.69	2.06	1.31	-1.37	-0.13	0.00	0.00	0.00	-6.37	35.09	8.56	1.09	6.97	-4.35	0.00	0.00	0.00	10.45	-7.85	32.54	-20.59	0.20	4.78	0.15	-0.78	0.00	0.00	0.00	0.00	-16.10	-24.74	-47.65	7.98	4.37	13.51	4.20	1.99	0.00	0.00	0.00	0.00	10.55	1.65	-75.54
-72.14	105.22	-94.45	-3.42	0.29	101.38	2.66	-27.07	3.68	0.00	22.19	0.00	4.08	23.80	2.17	1.24	-1.41	0.15	0.00	0.00	0.00	-6.61	35.30	8.65	1.11	6.94	-4.33	0.00	0.00	0.00	10.51	-7.82	32.78	-20.56	0.29	4.80	0.18	-0.78	0.00	0.00	0.00	0.00	-16.03	-24.77	-47.64	7.95	4.33	13.50	4.20	1.98	0.00	0.00	0.00	0.00	10.53	1.68	-75.57
-72.16	105.25	-94.55	-3.42	0.29	101.38	2.73	-27.15	3.87	0.00	22.27	0.00	4.01	23.89	2.24	1.15	-1.45	0.44	0.00	0.00	0.00	-6.73	35.37	8.75	1.13	6.92	-4.30	0.00	0.00	0.00	10.56	-7.79	33.01	-20.53	0.37	4.82	0.20	-0.77	0.00	0.00	0.00	0.00	-15.97	-24.81	-47.63	7.92	4.27	13.49	4.20	1.98	0.00	0.00	0.00	0.00	10.51	1.69	-75.60
-72.21	105.28	-94.61	-3.52	0.40	101.11	2.79	-27.23	4.04	0.00	22.35	0.00	3.93	23.99	2.35	1.05	-1.47	0.74	0.00	0.00	0.00	-6.88	35.43	8.87	1.13	6.90	-4.27	0.00	0.00	0.00	10.59	-7.74	33.27	-20.49	0.46	4.85	0.22	-0.77	0.00	0.00	0.00	0.00	-15.94	-24.85	-47.62	7.93	4.28	13.34	4.24	1.98	0.00	0.00	0.00	0.00	10.41	1.63	-75.51
-72.03	105.32	-94.64	-3.52	0.40	101.11	2.85	-27.33	4.19	0.00	22.45	0.00	3.85	24.08	2.45	0.94	-1.52	1.09	0.00	0.00	0.00	-7.05	35.49	9.01	1.14	6.88	-4.24	0.00	0.00	0.00	10.63	-7.70	33.51	-20.46	0.54	4.86	0.22	-0.76	0.00	0.00	0.00	0.00	-15.90	-24.90	-47.56	7.91	4.22	13.32	4.27	1.98	0.00	0.00	0.00	0.00	10.40	1.65	-75.55
-72.10	105.35	-94.74	-3.52	0.40	101.11	2.91	-27.40	4.32	0.00	22.52	0.00	3.75	24.20	2.58	0.82	-1.56	1.47	0.00	0.00	0.00	-7.19	35.56	9.07	1.14	6.87	-4.22	0.00	0.00	0.00	10.65	-7.66	33.75	-20.44	0.59	4.86	0.22	-0.75	0.00	0.00	0.00	0.00	-15.87	-24.92	-47.56	7.90	4.19	13.30	4.34	1.97	0.00	0.00	0.00	0.00	10.40	1.65	-75.58
-72.16	105.38	-94.83	-3.66	0.52	100.88	2.97	-27.47	4.44	0.00	22.60	0.00	3.65	24.30	2.69	0.68	-1.61	1.86	0.00	0.00	0.00	-7.31	35.65	9.11	1.16	6.85	-4.19	0.00	0.00	0.00	10.70	-7.62	33.96	-20.42	0.64	4.83	0.22	-0.74	0.00	0.00	0.00	0.00	-15.77	-24.89	-47.55	7.89	3.98	13.36	4.43	1.94	0.00	0.00	0.00	0.00	10.24	1.58	-75.42
-71.93	105.43	-94.82	-3.66	0.52	100.88	3.02	-27.55	4.55	0.00	22.68	0.00	3.55	24.40	2.79	0.56	-1.65	2.27	0.00	0.00	0.00	-7.38	35.69	9.10	1.16	6.83	-4.15	0.00	0.00	0.00	10.71	-7.60	34.16	-20.37	0.66	4.84	0.20	-0.73	0.00	0.00	0.00	0.00	-15.74	-24.92	-47.59	7.89	3.93	13.35	4.56	1.92	0.00	0.00	0.00	0.00	10.24	1.59	-75.47
-71.99	105.47	-94.91	-3.66	0.52	100.88	3.08	-27.63	4.66	0.00	22.78	0.00	3.44	24.50	2.91	0.42	-1.70	2.67	0.00	0.00	0.00	-7.44	35.76	9.09	1.17	6.81	-4.11	0.00	0.00	0.00	10.72	-7.57	34.35	-20.36	0.68	4.88	0.17	-0.72	0.00	0.00	0.00	0.00	-15.69	-24.94	-47.63	7.87	3.87	13.39	4.67	1.91	0.00	0.00	0.00	0.00	10.23	1.60	-75.51
-72.05	105.51	-95.00	-3.80	0.62	100.76	3.14	-27.71	4.75	0.00	22.87	0.00	3.32	24.59	3.03	0.27	-1.76	3.06	0.00	0.00	0.00	-7.47	35.85	9.03	1.22	6.80	-4.09	0.00	0.00	0.00	10.78	-7.50	34.48	-20.42	0.59	4.81	0.13	-0.73	0.00	0.00	0.00	0.00	-15.61	-24.95	-47.69	7.80	3.80	13.48	4.76	1.92	0.00	0.00	0.00	0.00	10.28	1.62	-75.60
-71.86	105.56	-94.98	-3.80	0.62	100.76	3.19	-27.74	4.82	0.00	22.95	0.00	3.19	24.69	3.16	0.13	-1.83	3.46	0.00	0.00	0.00	-7.51	35.89	9.00	1.23	6.78	-4.06	0.00	0.00	0.00	10.77	-7.48	34.60	-20.41	0.55	4.84	0.07	-0.73	0.00	0.00	0.00	0.00	-15.59	-24.97	-47.76	7.79	3.74	13.58	4.81	1.91	0.00	0.00	0.00	0.00	10.27	1.64	-75.64
-71.97	105.60	-95.05	-3.80	0.62	100.76	3.22	-27.77	4.90	0.00	22.99	0.00	3.06	24.80	3.27	-0.01	-1.89	3.87	0.00	0.00	0.00	-7.53	35.88	8.95	1.23	6.76	-4.02	0.00	0.00	0.00	10.77	-7.48	34.71	-20.41	0.51	4.86	0.00	-0.72	0.00	0.00	0.00	0.00	-15.57	-24.98	-47.82	7.78	3.72	13.68	4.81	1.90	0.00	0.00	0.00	0.00	10.26	1.65	-75.68
-72.06	105.64	-95.12	-4.05	0.79	100.68	3.27	-27.84	4.98	0.00	23.08	0.00	2.92	24.89	3.40	-0.15	-1.96	4.26	0.00	0.00	0.00	-7.56	35.86	8.91	1.22	6.74	-3.98	0.00	0.00	0.00	10.79	-7.50	34.82	-20.41	0.52	4.98	-0.11	-0.69	0.00	0.00	0.00	0.00	-15.59	-25.00	-47.89	7.78	3.74	13.76	4.79	1.90	0.00	0.00	0.00	0.00	10.40	1.64	-75.73
-71.71	105.68	-94.94	-4.05	0.79	100.68	3.30	-27.90	5.05	0.00	23.16	0.00	2.77	24.97	3.51	-0.27	-2.01	4.61	0.00	0.00	0.00	-7.64	35.88	8.93	1.22	6.72	-3.93	0.00	0.00	0.00	10.77	-7.50	34.91	-20.41	0.44	5.03	-0.20	-0.68	0.00	0.00	0.00	0.00	-15.62	-25.04	-48.01	7.80	3.84	13.74	4.77	1.93	0.00	0.00	0.00	0.00	10.40	1.66	-75.78
-71.79	105.71	-95.04	-4.05	0.79	100.68	3.33	-27.95	5.13	0.00	23.26	0.00	2.65	25.03	3.60	-0.37	-2.11	4.95	0.00	0.00	0.00	-7.72	35.89	8.99	1.19	6.67	-3.86	0.00	0.00	0.00	10.70	-7.54	35.02	-20.35	0.31	5.03	-0.29	-0.68	0.00	0.00	0.00	0.00	-15.67	-25.11	-48.03	7.82	3.92	13.77	4.71	1.95	0.00	0.00	0.00	0.00	10.44	1.70	-75.86
-71.93	105.73	-95.08	-4.24	0.96	100.70	3.36	-27.97	5.21	0.00	23.32	0.00	2.51	25.11	3.72	-0.51	-2.18	5.33	0.00	0.00	0.00	-7.80	35.87	9.03	1.18	6.65	-3.80	0.00	0.00	0.00	10.69	-7.54	35.09	-20.37	0.21	5.03	-0.39	-0.67	0.00	0.00	0.00	0.00	-15.68	-25.13	-48.04	7.83	3.95	13.80	4.62	1.96	0.00	0.00	0.00	0.00	10.49	1.66	-75.97
-71.93	105.73	-95.08	-4.24	0.96	100.70	3.39	-28.01	5.30	0.00	23.42	0.00	2.37	25.18	3.86	-0.61	-2.22	5.65	0.00	0.00	0.00	-7.90	35.88	9.10	1.18	6.64	-3.75	0.00	0.00	0.00	10.69	-7.53	35.14	-20.43	0.09	5.02	-0.49	-0.67	0.00	0.00	0.00	0.00	-15.67	-25.11	-48.01	7.84	3.91	13.84	4.51	1.96	0.00	0.00	0.00	0.00	10.49	1.67	-76.03
